# Blender v2.78 (sub 0) OBJ File: '4.blend'
# www.blender.org
mtllib Light_bulb_01.mtl
o Light_bulb_01_Circle.008
v 0.000000 2.751761 -1.254543
v -0.887096 2.751761 -0.887096
v -1.254543 2.751761 0.000000
v -0.887096 2.751761 0.887096
v 0.000000 2.751761 1.254543
v 0.887096 2.751761 0.887096
v 1.254543 2.751761 -0.000000
v 0.887096 2.751761 -0.887096
v 0.000000 3.407096 -1.253425
v -0.886305 3.407096 -0.886305
v -1.253425 3.407096 0.000000
v -0.886305 3.407096 0.886305
v 0.000000 3.407096 1.253425
v 0.886305 3.407096 0.886305
v 1.253425 3.407096 -0.000000
v 0.886305 3.407096 -0.886305
v 0.000000 4.711195 -1.729996
v -1.223292 4.711195 -1.223292
v -1.729996 4.711195 0.000000
v -1.223292 4.711195 1.223292
v 0.000000 4.711195 1.729996
v 1.223292 4.711195 1.223292
v 1.729996 4.711195 -0.000000
v 1.223292 4.711195 -1.223292
v 0.000000 6.037737 -2.553894
v -1.805875 6.037737 -1.805875
v -2.553894 6.037737 0.000000
v -1.805875 6.037737 1.805875
v 0.000000 6.037737 2.553894
v 1.805876 6.037737 1.805875
v 2.553893 6.037737 -0.000000
v 1.805876 6.037737 -1.805875
v 0.000000 8.577757 -2.637764
v -1.865181 8.577757 -1.865181
v -2.637764 8.577757 0.000000
v -1.865181 8.577757 1.865181
v 0.000000 8.577757 2.637764
v 1.865181 8.577757 1.865181
v 2.637764 8.577757 -0.000000
v 1.865181 8.577757 -1.865181
v 0.000000 9.592398 -1.718348
v -1.215055 9.592398 -1.215055
v -1.718347 9.592398 0.000000
v -1.215055 9.592398 1.215055
v 0.000000 9.592398 1.718348
v 1.215055 9.592398 1.215055
v 1.718348 9.592398 -0.000000
v 1.215055 9.592398 -1.215055
v 0.000000 9.998312 0.000000
v 2.745121 7.320964 -0.000000
v 1.941094 7.320964 -1.941093
v 0.000000 7.320964 2.745121
v 1.941094 7.320964 1.941093
v -2.745121 7.320964 0.000000
v -1.941093 7.320964 1.941093
v -0.000000 7.320964 -2.745121
v -1.941093 7.320964 -1.941093
v 0.000000 2.666129 -1.397167
v -0.987947 2.666129 -0.987947
v -1.397167 2.666129 0.000000
v -0.987947 2.666129 0.987947
v 0.000000 2.666129 1.397167
v 0.987947 2.666129 0.987946
v 1.397167 2.666129 -0.000000
v 0.987947 2.666129 -0.987946
v 0.000000 0.618436 -1.397167
v -0.987947 0.618436 -0.987947
v -1.397167 0.618436 0.000000
v -0.987947 0.618436 0.987947
v 0.000000 0.618436 1.397167
v 0.987947 0.618436 0.987946
v 1.397167 0.618436 -0.000000
v 0.987947 0.618436 -0.987946
v 0.000000 0.293300 -0.937556
v -0.662952 0.293300 -0.662952
v -0.937556 0.293300 0.000000
v -0.662952 0.293300 0.662952
v 0.000000 0.293300 0.937556
v 0.662953 0.293300 0.662952
v 0.937557 0.293300 -0.000000
v 0.662953 0.293300 -0.662952
v 0.000000 0.007952 -0.000000
v -1.276932 1.186876 0.000000
v -1.276932 1.039682 0.000000
v -0.902927 1.039682 -0.902927
v -0.902927 1.186876 -0.902927
v -1.276932 1.789818 0.000000
v -1.276932 1.633716 0.000000
v -0.902927 1.633716 -0.902927
v -0.902927 1.789818 -0.902927
v -1.276932 2.409112 0.000000
v -1.276932 2.299199 0.000000
v -0.902927 2.299199 -0.902927
v -0.902927 2.409112 -0.902927
v 0.902927 1.186876 -0.902927
v 0.902927 1.039682 -0.902927
v 1.276932 1.039682 -0.000000
v 1.276932 1.186876 -0.000000
v 0.902927 1.789818 -0.902927
v 0.902927 1.633716 -0.902927
v 1.276932 1.633716 -0.000000
v 1.276932 1.789818 -0.000000
v 0.902927 2.409112 -0.902927
v 0.902927 2.299199 -0.902927
v 1.276932 2.299199 -0.000000
v 1.276932 2.409112 -0.000000
v -0.987947 1.186876 0.987947
v -0.987947 1.039682 0.987947
v 0.000000 1.039682 1.397167
v 0.000000 1.186876 1.397167
v 0.000000 1.633716 1.397167
v 0.000000 1.806170 1.397167
v 0.000000 2.299199 1.397167
v 0.000000 2.409112 1.397167
v 0.987947 2.409112 0.987946
v 0.987947 2.299199 0.987946
v 0.987947 1.806170 0.987946
v 0.987947 1.633716 0.987946
v 0.987947 1.186876 0.987946
v 0.987947 1.039682 0.987946
v -0.987947 1.806170 0.987947
v -0.987947 1.633716 0.987947
v -0.987947 2.409112 0.987947
v -0.987947 2.299199 0.987947
v -1.397167 2.299199 0.000000
v -1.397167 2.409112 0.000000
v -1.397167 1.633716 0.000000
v -1.397167 1.806170 0.000000
v -1.397167 1.039682 0.000000
v -1.397167 1.186876 0.000000
v -0.987947 1.186876 -0.987947
v -0.987947 1.039682 -0.987947
v -0.987947 1.806170 -0.987947
v -0.987947 1.633716 -0.987947
v -0.987947 2.409112 -0.987947
v -0.987947 2.299199 -0.987947
v 0.000000 2.299199 -1.397167
v 0.000000 2.409112 -1.397167
v 0.000000 1.633716 -1.397167
v 0.000000 1.806170 -1.397167
v 0.000000 1.039682 -1.397167
v 0.000000 1.186876 -1.397167
v 0.987947 2.299199 -0.987946
v 0.987947 2.409112 -0.987946
v 0.987947 1.633716 -0.987946
v 0.987947 1.806170 -0.987946
v 0.987947 1.039682 -0.987946
v 0.987947 1.186876 -0.987946
v 1.397167 1.186876 -0.000000
v 1.397167 1.039682 -0.000000
v 1.397167 1.806170 -0.000000
v 1.397167 1.633716 -0.000000
v 1.397167 2.409112 -0.000000
v 1.397167 2.299199 -0.000000
v -0.902927 2.409112 0.902927
v -0.902927 2.299199 0.902927
v 0.000000 2.299199 1.276932
v 0.000000 2.409112 1.276932
v -0.902927 1.789818 0.902927
v -0.902927 1.633716 0.902927
v 0.000000 1.633716 1.276932
v 0.000000 1.789818 1.276932
v -0.902927 1.186876 0.902927
v -0.902927 1.039682 0.902927
v 0.000000 1.039682 1.276932
v 0.000000 1.186876 1.276932
v 0.902927 2.409112 0.902927
v 0.902927 2.299199 0.902927
v 0.902927 1.789818 0.902927
v 0.902927 1.633716 0.902927
v 0.902927 1.186876 0.902927
v 0.902927 1.039682 0.902927
v 0.000000 2.299199 -1.276932
v 0.000000 2.409112 -1.276932
v 0.000000 1.633716 -1.276932
v 0.000000 1.789818 -1.276932
v 0.000000 1.039682 -1.276932
v 0.000000 1.186876 -1.276932
vn 0.9239 0.0016 -0.3827
vn 0.3827 0.0016 0.9239
vn -0.9239 0.0016 0.3827
vn -0.3827 0.0016 -0.9239
vn 0.3827 0.0016 -0.9239
vn 0.9239 0.0016 0.3827
vn -0.3827 0.0016 0.9239
vn -0.9239 0.0016 -0.3827
vn 0.3626 -0.3199 -0.8753
vn 0.8753 -0.3199 0.3626
vn -0.3626 -0.3199 0.8753
vn -0.8753 -0.3199 -0.3626
vn 0.8753 -0.3199 -0.3626
vn 0.3626 -0.3199 0.8753
vn -0.8753 -0.3199 0.3626
vn -0.3626 -0.3199 -0.8753
vn 0.3319 -0.4977 0.8013
vn -0.8013 -0.4977 0.3319
vn -0.3319 -0.4977 -0.8013
vn 0.3319 -0.4977 -0.8013
vn 0.8013 -0.4977 0.3319
vn -0.3319 -0.4977 0.8013
vn -0.8013 -0.4977 -0.3319
vn 0.8013 -0.4977 -0.3319
vn 0.9210 0.0787 -0.3815
vn 0.3815 0.0787 0.9210
vn -0.9210 0.0787 0.3815
vn -0.3815 0.0787 -0.9210
vn 0.3815 0.0787 -0.9210
vn 0.9210 0.0787 0.3815
vn -0.3815 0.0787 0.9210
vn -0.9210 0.0787 -0.3815
vn 0.7084 0.6419 0.2934
vn -0.2934 0.6419 0.7084
vn -0.7084 0.6419 -0.2934
vn 0.7084 0.6419 -0.2934
vn 0.2934 0.6419 0.7084
vn -0.7084 0.6419 0.2934
vn -0.2934 0.6419 -0.7084
vn 0.2934 0.6419 -0.7084
vn -0.0948 0.9688 -0.2289
vn 0.0948 0.9688 -0.2289
vn 0.2289 0.9688 0.0948
vn -0.0948 0.9688 0.2289
vn -0.2289 0.9688 -0.0948
vn 0.2289 0.9688 -0.0948
vn 0.0948 0.9688 0.2289
vn -0.2289 0.9688 0.0948
vn -0.9152 -0.1364 -0.3791
vn -0.3791 -0.1364 0.9152
vn 0.9152 -0.1364 0.3791
vn 0.3791 -0.1364 -0.9152
vn -0.3791 -0.1364 -0.9152
vn -0.9152 -0.1364 0.3791
vn 0.3791 -0.1364 0.9152
vn 0.9152 -0.1364 -0.3791
vn 0.3827 0.0000 0.9239
vn -0.3827 0.0000 -0.9239
vn 0.9239 0.0000 -0.3827
vn -0.9239 0.0000 0.3827
vn -0.3827 0.0000 0.9239
vn 0.5617 -0.7940 -0.2327
vn 0.2327 -0.7940 0.5617
vn -0.5617 -0.7940 0.2327
vn -0.2327 -0.7940 -0.5617
vn 0.2327 -0.7940 -0.5617
vn 0.5617 -0.7940 0.2327
vn -0.2327 -0.7940 0.5617
vn -0.5617 -0.7940 -0.2327
vn -0.9239 0.0000 -0.3827
vn 0.9239 0.0000 0.3827
vn 0.3827 0.0000 -0.9239
vn 0.0000 1.0000 0.0000
vn 0.0000 -1.0000 0.0000
vn 0.1346 -0.9893 -0.0557
vn -0.1346 -0.9893 -0.0557
vn -0.0557 -0.9893 0.1346
vn -0.0557 -0.9893 -0.1346
vn 0.0557 -0.9893 0.1346
vn -0.1346 -0.9893 0.0557
vn 0.0557 -0.9893 -0.1346
vn 0.1346 -0.9893 0.0557
vn 0.5034 0.8385 -0.2085
vn 0.2085 0.8385 0.5034
vn -0.5034 0.8385 0.2085
vn -0.2085 0.8385 -0.5034
vn 0.2085 0.8385 -0.5034
vn 0.5034 0.8385 0.2085
vn -0.2085 0.8385 0.5034
vn -0.5034 0.8385 -0.2085
vn 0.2891 -0.9498 0.1197
vn -0.1197 -0.9498 0.2891
vn -0.2891 -0.9498 -0.1197
vn 0.2891 -0.9498 -0.1197
vn 0.1197 -0.9498 0.2891
vn -0.2891 -0.9498 0.1197
vn -0.1197 -0.9498 -0.2891
vn 0.1197 -0.9498 -0.2891
usemtl FFEB3B
s off
f 7//1 8//1 16//1 15//1
f 5//2 6//2 14//2 13//2
f 3//3 4//3 12//3 11//3
f 1//4 2//4 10//4 9//4
f 8//5 1//5 9//5 16//5
f 6//6 7//6 15//6 14//6
f 4//7 5//7 13//7 12//7
f 2//8 3//8 11//8 10//8
f 16//9 9//9 17//9 24//9
f 14//10 15//10 23//10 22//10
f 12//11 13//11 21//11 20//11
f 10//12 11//12 19//12 18//12
f 15//13 16//13 24//13 23//13
f 13//14 14//14 22//14 21//14
f 11//15 12//15 20//15 19//15
f 9//16 10//16 18//16 17//16
f 21//17 22//17 30//17 29//17
f 19//18 20//18 28//18 27//18
f 17//19 18//19 26//19 25//19
f 24//20 17//20 25//20 32//20
f 22//21 23//21 31//21 30//21
f 20//22 21//22 29//22 28//22
f 18//23 19//23 27//23 26//23
f 23//24 24//24 32//24 31//24
f 50//25 51//25 40//25 39//25
f 52//26 53//26 38//26 37//26
f 54//27 55//27 36//27 35//27
f 56//28 57//28 34//28 33//28
f 51//29 56//29 33//29 40//29
f 53//30 50//30 39//30 38//30
f 55//31 52//31 37//31 36//31
f 57//32 54//32 35//32 34//32
f 38//33 39//33 47//33 46//33
f 36//34 37//34 45//34 44//34
f 34//35 35//35 43//35 42//35
f 39//36 40//36 48//36 47//36
f 37//37 38//37 46//37 45//37
f 35//38 36//38 44//38 43//38
f 33//39 34//39 42//39 41//39
f 40//40 33//40 41//40 48//40
f 41//41 42//41 49//41
f 48//42 41//42 49//42
f 46//43 47//43 49//43
f 44//44 45//44 49//44
f 42//45 43//45 49//45
f 47//46 48//46 49//46
f 45//47 46//47 49//47
f 43//48 44//48 49//48
f 26//49 27//49 54//49 57//49
f 28//50 29//50 52//50 55//50
f 30//51 31//51 50//51 53//51
f 32//52 25//52 56//52 51//52
f 25//53 26//53 57//53 56//53
f 27//54 28//54 55//54 54//54
f 29//55 30//55 53//55 52//55
f 31//56 32//56 51//56 50//56
usemtl 78909C
f 118//57 111//57 110//57 119//57
f 120//57 109//57 70//57 71//57
f 136//58 137//58 140//58 133//58
f 65//59 64//59 153//59 144//59
f 124//60 125//60 128//60 121//60
f 111//61 122//61 107//61 110//61
f 134//58 139//58 142//58 131//58
f 105//59 104//59 103//59 106//59
f 73//62 72//62 80//62 81//62
f 71//63 70//63 78//63 79//63
f 69//64 68//64 76//64 77//64
f 67//65 66//65 74//65 75//65
f 66//66 73//66 81//66 74//66
f 72//67 71//67 79//67 80//67
f 70//68 69//68 77//68 78//68
f 68//69 67//69 75//69 76//69
f 143//59 154//59 151//59 146//59
f 145//59 152//59 149//59 148//59
f 147//59 150//59 72//59 73//59
f 125//70 136//70 133//70 128//70
f 127//70 134//70 131//70 130//70
f 129//70 132//70 67//70 68//70
f 63//57 62//57 114//57 115//57
f 116//57 113//57 112//57 117//57
f 108//60 129//60 68//60 69//60
f 152//71 118//71 119//71 149//71
f 64//71 63//71 115//71 153//71
f 150//71 120//71 71//71 72//71
f 137//72 143//72 146//72 140//72
f 139//72 145//72 148//72 142//72
f 141//72 147//72 73//72 66//72
f 58//72 65//72 144//72 138//72
f 59//58 58//58 138//58 135//58
f 132//58 141//58 66//58 67//58
f 60//70 59//70 135//70 126//70
f 61//60 60//60 126//60 123//60
f 109//61 108//61 69//61 70//61
f 154//71 116//71 117//71 151//71
f 62//61 61//61 123//61 114//61
f 113//61 124//61 121//61 112//61
f 132//73 129//73 84//73 85//73
f 123//74 126//74 91//74 155//74
f 146//75 151//75 102//75 99//75
f 138//74 144//74 103//74 174//74
f 125//73 124//73 156//73 92//73
f 108//73 109//73 165//73 164//73
f 128//76 133//76 90//76 87//76
f 131//74 142//74 178//74 86//74
f 152//73 145//73 100//73 101//73
f 143//73 137//73 173//73 104//73
f 141//73 132//73 85//73 177//73
f 112//77 121//77 159//77 162//77
f 119//74 110//74 166//74 171//74
f 149//74 119//74 171//74 98//74
f 134//73 127//73 88//73 89//73
f 133//78 140//78 176//78 90//78
f 144//74 153//74 106//74 103//74
f 109//73 120//73 172//73 165//73
f 120//73 150//73 97//73 172//73
f 139//73 134//73 89//73 175//73
f 122//73 111//73 161//73 160//73
f 117//79 112//79 162//79 169//79
f 126//74 135//74 94//74 91//74
f 135//74 138//74 174//74 94//74
f 122//60 127//60 130//60 107//60
f 101//59 100//59 99//59 102//59
f 97//59 96//59 95//59 98//59
f 93//70 92//70 91//70 94//70
f 89//70 88//70 87//70 90//70
f 85//70 84//70 83//70 86//70
f 156//61 157//61 158//61 155//61
f 160//61 161//61 162//61 159//61
f 164//61 165//61 166//61 163//61
f 168//71 105//71 106//71 167//71
f 170//71 101//71 102//71 169//71
f 172//71 97//71 98//71 171//71
f 104//72 173//72 174//72 103//72
f 100//72 175//72 176//72 99//72
f 96//72 177//72 178//72 95//72
f 173//58 93//58 94//58 174//58
f 175//58 89//58 90//58 176//58
f 177//58 85//58 86//58 178//58
f 92//60 156//60 155//60 91//60
f 88//60 160//60 159//60 87//60
f 84//60 164//60 163//60 83//60
f 157//57 168//57 167//57 158//57
f 161//57 170//57 169//57 162//57
f 165//57 172//57 171//57 166//57
f 145//73 139//73 175//73 100//73
f 110//74 107//74 163//74 166//74
f 127//73 122//73 160//73 88//73
f 150//73 147//73 96//73 97//73
f 121//80 128//80 87//80 159//80
f 130//74 131//74 86//74 83//74
f 140//81 146//81 99//81 176//81
f 116//73 154//73 105//73 168//73
f 129//73 108//73 164//73 84//73
f 147//73 141//73 177//73 96//73
f 148//74 149//74 98//74 95//74
f 153//74 115//74 167//74 106//74
f 107//74 130//74 83//74 163//74
f 124//73 113//73 157//73 156//73
f 113//73 116//73 168//73 157//73
f 142//74 148//74 95//74 178//74
f 136//73 125//73 92//73 93//73
f 118//73 152//73 101//73 170//73
f 115//74 114//74 158//74 167//74
f 114//74 123//74 155//74 158//74
f 137//73 136//73 93//73 173//73
f 151//82 117//82 169//82 102//82
f 111//73 118//73 170//73 161//73
f 154//73 143//73 104//73 105//73
usemtl 1A1A1A
f 8//83 7//83 64//83 65//83
f 6//84 5//84 62//84 63//84
f 4//85 3//85 60//85 61//85
f 2//86 1//86 58//86 59//86
f 1//87 8//87 65//87 58//87
f 7//88 6//88 63//88 64//88
f 5//89 4//89 61//89 62//89
f 3//90 2//90 59//90 60//90
f 80//91 79//91 82//91
f 78//92 77//92 82//92
f 76//93 75//93 82//93
f 81//94 80//94 82//94
f 79//95 78//95 82//95
f 77//96 76//96 82//96
f 75//97 74//97 82//97
f 74//98 81//98 82//98
